<svg width="26" height="24" xmlns="http://www.w3.org/2000/svg" xmlns:xlink="http://www.w3.org/1999/xlink" xml:space="preserve" overflow="hidden"><g transform="translate(-627 -348)"><path d="M61.9901 32.9189 79.0908 32.9189 77.3807 43.1793 63.7002 43.1793 61.9901 32.9189Z" stroke="#7203FF" stroke-width="1.49631" stroke-linecap="round" stroke-linejoin="round" fill="none" transform="matrix(1 0 0 1.0025 571.297 320.385)"/><path d="M65.4101 48.8795C66.0398 48.8795 66.5502 48.3691 66.5502 47.7395 66.5502 47.1098 66.0398 46.5994 65.4101 46.5994 64.7805 46.5994 64.2701 47.1098 64.2701 47.7395 64.2701 48.3691 64.7805 48.8795 65.4101 48.8795Z" stroke="#7203FF" stroke-width="1.49631" stroke-linecap="round" stroke-linejoin="round" fill="none" transform="matrix(1 0 0 1.0025 571.297 320.385)"/><path d="M75.6708 48.8795C76.3004 48.8795 76.8109 48.3691 76.8109 47.7395 76.8109 47.1098 76.3004 46.5994 75.6708 46.5994 75.0411 46.5994 74.5308 47.1098 74.5308 47.7395 74.5308 48.3691 75.0411 48.8795 75.6708 48.8795Z" stroke="#7203FF" stroke-width="1.49631" stroke-linecap="round" stroke-linejoin="round" fill="none" transform="matrix(1 0 0 1.0025 571.297 320.385)"/><path d="M61.9902 32.9189 58.5701 32.9189" stroke="#7203FF" stroke-width="1.49631" stroke-linecap="round" stroke-linejoin="round" fill="none" transform="matrix(1 0 0 1.0025 571.297 320.385)"/><path d="M63.452 38.4745C63.0589 35.9966 62.7388 33.8785 62.7408 33.7676 62.745 33.5277 78.4705 33.4911 78.4705 33.731 78.4705 34.074 77.134 42.0593 77.0014 42.5091 76.8741 42.9405 76.3326 42.9798 70.5146 42.9798L64.1668 42.9798Z" stroke="#7203FF" stroke-width="0.265514" fill="#7203FF" fill-opacity="0.48996" transform="matrix(1 0 0 1.0025 571.297 320.385)"/></g></svg>